# xmcd
#
# Track frame offsets: 
#        150
#        17535
#        32152
#        50580
#        70604
#        85665
#        112153
#        128798
#        137828
#        149518
#        167513
#        176953
#        224079
#
# Disc length: 4187 seconds
#
# Revision: 0
# Processed by: cddbd v1.5.2PL0 Copyright (c) Steve Scherf et al.
# Submitted via: ExactAudioCopy v0.99pb3
#
DISCID=c210590d
DTITLE=Floyd Lee and His Mean Blues Band - Full Moon Lightnin'
DYEAR=2004
DGENRE=Blues
TTITLE0=Full Moon Lightnin'
TTITLE1=Lights Out
TTITLE2=Mean Ol' Frisco
TTITLE3=It Hurts Me Too
TTITLE4=Crawlin' Kingsnake
TTITLE5=Don't Answer The Door
TTITLE6=Come Back Baby
TTITLE7=The Red Rooster
TTITLE8=You're So Sweet
TTITLE9=Key To The Highway
TTITLE10=You Don't Have To Go
TTITLE11=Mean Blues
TTITLE12=Mean Blues Video
EXTD=
EXTT0=
EXTT1=
EXTT2=
EXTT3=
EXTT4=
EXTT5=
EXTT6=
EXTT7=
EXTT8=
EXTT9=
EXTT10=
EXTT11=
EXTT12=
PLAYORDER=
